<?xml version="1.0" encoding="utf-8"?>
<!-- Generator: Adobe Illustrator 24.0.1, SVG Export Plug-In . SVG Version: 6.00 Build 0)  -->
<svg version="1.1" id="Layer_1" xmlns="http://www.w3.org/2000/svg" xmlns:xlink="http://www.w3.org/1999/xlink" x="0px" y="0px"
	 viewBox="0 0 150 150" style="enable-background:new 0 0 150 150;" xml:space="preserve">

<g>
	<g>
		<g>
			<path class="st1" d="M97.4,123.1H53.8c-1.2,0-2.1-0.9-2.1-2.1V28.9c0-1.2,0.9-2.1,2.1-2.1h43.6c1.1,0,2.1,0.9,2.1,2.1v92.1
				C99.4,122.2,98.5,123.1,97.4,123.1z M55.9,119h39.4V31H55.9V119z"/>
		</g>
		<g>
			<rect x="64.7" y="37.9" class="st1" width="21.7" height="7.8"/>
		</g>
		<g>
			<path class="st1" d="M90.3,62.8H80.2c-1.2,0-2.1-1-2.1-2.1c0-1.2,1-2.1,2.1-2.1h10.2c1.2,0,2.1,1,2.1,2.1
				C92.5,61.8,91.5,62.8,90.3,62.8z"/>
		</g>
		<g>
			<path class="st1" d="M80.6,106.6H70.5c-1.2,0-2.1-0.9-2.1-2.1c0-1.2,1-2.1,2.1-2.1h10.2c1.2,0,2.1,0.9,2.1,2.1
				C82.8,105.7,81.8,106.6,80.6,106.6z"/>
		</g>
		<g>
			<path class="st1" d="M89,76.4H62.1c-0.6,0-1.1-0.5-1.1-1.1s0.5-1.1,1.1-1.1H89c0.6,0,1.1,0.5,1.1,1.1S89.6,76.4,89,76.4z"/>
		</g>
		<g>
			<path class="st1" d="M89,85.5H62.1c-0.6,0-1.1-0.5-1.1-1.1s0.5-1.1,1.1-1.1H89c0.6,0,1.1,0.5,1.1,1.1S89.6,85.5,89,85.5z"/>
		</g>
		<g>
			<path class="st1" d="M89,94.6H62.1c-0.6,0-1.1-0.5-1.1-1.1c0-0.6,0.5-1.1,1.1-1.1H89c0.6,0,1.1,0.5,1.1,1.1
				C90.1,94.1,89.6,94.6,89,94.6z"/>
		</g>
	</g>
</g>
</svg>
