<?xml version="1.0" encoding="utf-8"?>
<!-- Generator: Adobe Illustrator 24.0.1, SVG Export Plug-In . SVG Version: 6.00 Build 0)  -->
<svg version="1.1" id="Layer_1" xmlns="http://www.w3.org/2000/svg" xmlns:xlink="http://www.w3.org/1999/xlink" x="0px" y="0px"
	 viewBox="0 0 150 150" style="enable-background:new 0 0 150 150;" xml:space="preserve">
<style type="text/css">
	.st0{fill:#197278;}
</style>
<g>
	<path class="st0" d="M98.8,79.8v56.8H50.2V79.8H98.8 M103.9,74.3H45.2v67.8h58.7V74.3L103.9,74.3z"/>
	<path class="st0" d="M132.9,49.5c6.9,0,12.4,6.4,12.4,14.2v42.8h-37V74.3c0-2.6-2.1-4.6-4.6-4.6H45.3c-2.6,0-4.6,2.1-4.6,4.6v32.2
		h-36V63.7c0-7.8,5.6-14.2,12.4-14.2H132.9 M119.5,69.4h12.8c3.4,0,6.2-2.9,6.2-6.4v-3.6c0-3.5-2.8-6.4-6.2-6.4h-12.8
		c-3.4,0-6.2,2.9-6.2,6.4V63C113.3,66.5,116.1,69.4,119.5,69.4 M132.9,44.8H17.1C7.6,44.8,0,53.3,0,63.7V107c0,2.2,1.7,4.1,3.7,4.1
		h41.6V74.3h58.4v36.8h42.6c2,0,3.7-1.8,3.7-4.1V63.7C150,53.3,142.4,44.8,132.9,44.8L132.9,44.8z M119.5,64.7
		c-0.9,0-1.6-0.8-1.6-1.8v-3.6c0-1,0.7-1.8,1.6-1.8h12.8c0.9,0,1.6,0.8,1.6,1.8V63c0,1-0.7,1.8-1.6,1.8H119.5L119.5,64.7z"/>
	<path class="st0" d="M119.6,14.3v21.4H32.5V14.3H119.6 M120.6,7.9H31.5c-3,0-5.4,2.4-5.4,5.4v28.8H126V13.3
		C126,10.3,123.5,7.9,120.6,7.9L120.6,7.9z"/>
</g>
</svg>
