<?xml version="1.0" encoding="utf-8"?>
<!-- Generator: Adobe Illustrator 24.0.1, SVG Export Plug-In . SVG Version: 6.00 Build 0)  -->
<svg version="1.1" id="Layer_1" xmlns="http://www.w3.org/2000/svg" xmlns:xlink="http://www.w3.org/1999/xlink" x="0px" y="0px"
	 viewBox="0 0 150 150" style="enable-background:new 0 0 150 150;" xml:space="preserve">

<g>
	<g>
		<path class="st1" d="M88.3,77.7v31.7H61.2V77.7H88.3 M91.1,74.6H58.4v37.9h32.8V74.6L91.1,74.6z"/>
		<g>
			<path class="st1" d="M107.3,60.8c3.8,0,6.9,3.5,6.9,7.9v23.9H93.6v-18c0-1.4-1.2-2.6-2.6-2.6H58.4c-1.4,0-2.6,1.2-2.6,2.6v18
				H35.7V68.7c0-4.4,3.1-7.9,6.9-7.9H107.3 M99.9,71.9h7.1c1.9,0,3.5-1.6,3.5-3.6v-2c0-2-1.6-3.6-3.5-3.6h-7.1
				c-1.9,0-3.5,1.6-3.5,3.6v2C96.4,70.3,97.9,71.9,99.9,71.9 M107.3,58.2H42.7c-5.3,0-9.5,4.7-9.5,10.5v24.2c0,1.3,0.9,2.3,2.1,2.3
				h23.2V74.6H91v20.5h23.8c1.1,0,2.1-1,2.1-2.3V68.7C116.9,62.9,112.6,58.2,107.3,58.2L107.3,58.2z M99.9,69.3
				c-0.5,0-0.9-0.4-0.9-1v-2c0-0.5,0.4-1,0.9-1h7.1c0.5,0,0.9,0.4,0.9,1v2c0,0.5-0.4,1-0.9,1H99.9L99.9,69.3z"/>
		</g>
		<g>
			<path class="st1" d="M99.9,41.1v12H51.3v-12H99.9 M100.4,37.5H50.7c-1.7,0-3,1.3-3,3v16.1h55.7V40.6
				C103.4,38.9,102.1,37.5,100.4,37.5L100.4,37.5z"/>
		</g>
	</g>
</g>
</svg>
