<?xml version="1.0" encoding="utf-8"?>
<!-- Generator: Adobe Illustrator 24.0.1, SVG Export Plug-In . SVG Version: 6.00 Build 0)  -->
<svg version="1.1" id="Layer_1" xmlns="http://www.w3.org/2000/svg" xmlns:xlink="http://www.w3.org/1999/xlink" x="0px" y="0px"
	 viewBox="0 0 150 150" style="enable-background:new 0 0 150 150;" xml:space="preserve">
<style type="text/css">
	.st0{fill:#FFFFFF;}
	.st1{fill:#5FC9DB;}
</style>
<g>
	<path class="st0" d="M150,75c0,41.4-33.6,75-75,75c-41.4,0-75-33.6-75-75C0,33.6,33.6,0,75,0C116.4,0,150,33.6,150,75z"/>
	<g>
		<polygon class="st1" points="73.7,36.6 76.3,36.6 76.3,34.1 78.9,34.1 78.9,31.5 76.3,31.5 76.3,28.9 73.7,28.9 73.7,31.5 
			71.1,31.5 71.1,34.1 73.7,34.1 		"/>
		<path class="st1" d="M98,81.2c-2.8-0.5-6.4-1-10.4-1.2l0.1-0.2c-2.3-1.8-2.3-7.9-2.1-10.6c5.4-3.4,8.8-9.4,8.8-16.7v-10H96
			L97.4,28c0-1.1-0.7-2-1.7-2.5l0,0c0,0,0,0,0,0c-0.1,0-0.2-0.1-0.3-0.1C89,23.1,82.3,21.9,75,21.9c-7.2,0-13.8,1.1-20.3,3.4
			c-1.2,0.4-2.1,1.4-2.1,2.8L54,42.5h1.5v10.1c0,7.5,3.6,13.6,9.3,16.9c0.2,2.8,0.1,8.5-2.1,10.3l0.1,0.1c-4.2,0.3-7.9,0.7-10.8,1.3
			c-9.7,2-16.3,9.2-16.3,17.9v23.1h78.6V99.1C114.3,89.9,108.2,83.2,98,81.2z M55.7,28L94,27.9c0.2,0.1,0.4,0.1,0.6,0.2l-1.1,11.6
			h-37l-1.1-11.6C55.5,28.1,55.6,28,55.7,28z M82.2,25.2l-14.2,0c2.3-0.3,4.7-0.5,7.1-0.5C77.5,24.7,79.8,24.9,82.2,25.2z
			 M58.1,52.6V42.5h33.9v10c0,10.1-7,17.1-16.9,17.1S58.1,62.6,58.1,52.6z M67.5,70.8c2.3,0.9,4.8,1.4,7.5,1.4c2.9,0,5.6-0.6,8-1.6
			c-0.1,2.5,0.1,6.4,1.6,9.1c-6-0.3-12.7-0.3-18.7,0C67.3,77,67.5,73.3,67.5,70.8z M82.4,82.3L75,89.7l-7.4-7.4
			C72.4,82.1,77.5,82.1,82.4,82.3z M60.7,98.4c1.8,0,3.2,1.4,3.2,3.2c0,1.8-1.4,3.2-3.2,3.2c-1.8,0-3.2-1.4-3.2-3.2
			C57.5,99.8,58.9,98.4,60.7,98.4z M111.7,119.6H38.3V99.1c0-7.5,5.7-13.6,14.2-15.3c2-0.4,4.4-0.7,7.1-1v13.7
			c-2.4,0.5-4.2,2.5-4.2,5.1c0,2.9,2.4,5.3,5.3,5.3s5.3-2.4,5.3-5.3c0-2.5-1.8-4.6-4.2-5.1V82.6c0.8-0.1,1.5-0.1,2.3-0.2L75,93.4
			l10.9-10.9c0.9,0.1,1.8,0.1,2.7,0.2v12.7c-4.3,0.6-7.7,4.6-7.7,9.6v9.5c0,0.9,0.7,1.6,1.5,1.7l1.6,0.1c0.3,0.6,0.9,1,1.6,1
			c1.1,0,2-0.8,2-1.9c0-1.1-0.8-2-1.9-2c-0.7,0-1.3,0.3-1.7,0.9l-1.2,0v-9.1c0-4.2,3-7.6,6.7-7.6s6.7,3.4,6.7,7.6v9.1l-0.5,0
			c-0.4-0.5-1-0.9-1.7-0.8c-1.1,0.1-1.9,1-1.9,2.1c0.1,1.1,1,1.9,2.1,1.9c0.7,0,1.3-0.4,1.6-1l1-0.1c0.8-0.1,1.5-0.8,1.5-1.7v-9.5
			c0-5-3.4-9-7.7-9.6V82.8c2.5,0.2,4.9,0.6,6.8,0.9c9,1.7,14.2,7.3,14.2,15.3V119.6z"/>
	</g>
</g>
</svg>
