<?xml version="1.0" encoding="utf-8"?>
<!-- Generator: Adobe Illustrator 24.0.1, SVG Export Plug-In . SVG Version: 6.00 Build 0)  -->
<svg version="1.1" id="Layer_1" xmlns="http://www.w3.org/2000/svg" xmlns:xlink="http://www.w3.org/1999/xlink" x="0px" y="0px"
	 viewBox="0 0 150 150" style="enable-background:new 0 0 150 150;" xml:space="preserve">
<style type="text/css">
	.st0{fill:#FFFFFF;}
	.st1{fill:#191F50;}
</style>
<g>
	<path class="st0" d="M146,103.9c2.6,2.6,3.9,5.7,3.9,9.3c0,3.7-1.3,6.9-3.9,9.5c-2.6,2.6-5.8,3.9-9.5,3.9c-3.6,0-6.7-1.3-9.3-3.9
		c-2.6-2.6-3.9-5.8-3.9-9.5c0-3.6,1.3-6.7,3.9-9.3s5.7-3.9,9.3-3.9C140.2,100,143.4,101.3,146,103.9z M148.8,22.3l-2.9,64.4h-18.8
		l-2.9-64.4H148.8z"/>
</g>
<g>
	<path class="st0" d="M38.9,135.1c-2.7-2.1-4.4-5.1-4.9-8.5c-0.4-3.4,0.5-6.8,2.6-9.6c2.4-3.2,6.2-5,10.2-5c2.9,0,5.7,1,8,2.8l6.4,5
		l18-20.9c0.1-1.5,0.2-3,0.1-4.5C77.5,66.6,62.9,38.3,39.6,6.7C16.9,38,1,69.8-0.1,94.2c-1.1,23.9,15.8,43.5,39.7,43.5
		c0.8,0,1.6-0.2,2.4-0.2L38.9,135.1z M62.6,61.5c0.6,3.5,0.7,8.3-4.5,8.3c-4.4,0-4.9-9.9-6-15c-1.9-9.3-2.4-19.9-7.1-29.5
		C45,25.2,59.6,43.3,62.6,61.5z"/>
	<path class="st1" d="M63,142.2c-1,0-2.1-0.3-2.9-1l-16.2-12.6c-2.1-1.6-2.5-4.6-0.8-6.7c1.6-2.1,4.6-2.5,6.7-0.8l12.6,9.8
		l34.5-40.3c1.7-2,4.7-2.2,6.7-0.5c2,1.7,2.2,4.7,0.5,6.7l-37.5,43.7C65.7,141.7,64.4,142.2,63,142.2z"/>
</g>
</svg>
