<?xml version="1.0" encoding="utf-8"?>
<!-- Generator: Adobe Illustrator 24.0.1, SVG Export Plug-In . SVG Version: 6.00 Build 0)  -->
<svg version="1.1" id="Layer_1" xmlns="http://www.w3.org/2000/svg" xmlns:xlink="http://www.w3.org/1999/xlink" x="0px" y="0px"
	 viewBox="0 0 150 150" style="enable-background:new 0 0 150 150;" xml:space="preserve">
<style type="text/css">
	.st0{fill:#FFFFFF;}
</style>
<g>
	<path class="st0" d="M145.6,108.6c2.8,2.8,4.3,6.3,4.3,10.2c0,4.1-1.4,7.5-4.3,10.4c-2.8,2.8-6.3,4.3-10.4,4.3
		c-4,0-7.4-1.4-10.2-4.3c-2.8-2.8-4.3-6.3-4.3-10.4c0-4,1.4-7.4,4.3-10.2c2.8-2.8,6.2-4.3,10.2-4.3
		C139.3,104.3,142.7,105.8,145.6,108.6z M148.7,19.2l-3.2,70.5h-20.6l-3.2-70.5H148.7z"/>
</g>
<path class="st0" d="M43.4,2.8C18.5,37.1,1.1,71.8-0.1,98.6c-1.2,26.2,17.3,47.6,43.5,47.6c26.2,0,45.2-21.5,43.5-47.6
	C84.9,68.3,68.8,37.4,43.4,2.8z M63.6,71.8c-4.8,0-5.4-10.8-6.6-16.4C55,45.1,54.5,33.6,49.3,23c0,0,15.9,19.8,19.2,39.7
	C69.2,66.5,69.3,71.8,63.6,71.8z"/>
</svg>
