<?xml version="1.0" encoding="utf-8"?>
<!-- Generator: Adobe Illustrator 24.0.1, SVG Export Plug-In . SVG Version: 6.00 Build 0)  -->
<svg version="1.1" id="Layer_1" xmlns="http://www.w3.org/2000/svg" xmlns:xlink="http://www.w3.org/1999/xlink" x="0px" y="0px"
	 viewBox="0 0 150 150" style="enable-background:new 0 0 150 150;" xml:space="preserve">
<g>
	<path class="st0" d="M64.7,130.8c-21.2-3.3-38.4-18.2-45-38.4l22.6,12.5l2.8-5.1L14.6,83L0,114.6l5.3,2.4l9.6-20.9
		c7.7,21.2,26.2,36.8,48.9,40.3c3.2,0.5,6.5,0.8,9.6,0.8c27.1,0,51.8-17.8,59.7-44.5l-5.6-1.7C119.6,118.1,92.5,135.2,64.7,130.8z"
		/>
	<path class="st0" d="M40.2,29.4c12.2-8.9,27.1-12.5,42-10.1c22.9,3.6,41,20.6,46.2,42.9L107,47.7l-3.2,4.8l29,19.4L150,41.6
		l-5.1-2.9l-11.3,20c-6.3-23.6-25.9-41.4-50.4-45.2c-16.4-2.6-32.9,1.4-46.3,11.2C23.4,34.4,14.5,48.9,12,65.3l5.7,0.9
		C20,51.3,28,38.2,40.2,29.4z"/>
</g>
</svg>
