<?xml version="1.0" encoding="utf-8"?>
<!-- Generator: Adobe Illustrator 24.0.1, SVG Export Plug-In . SVG Version: 6.00 Build 0)  -->
<svg version="1.1" id="Layer_1" xmlns="http://www.w3.org/2000/svg" xmlns:xlink="http://www.w3.org/1999/xlink" x="0px" y="0px"
	 viewBox="0 0 150 150" style="enable-background:new 0 0 150 150;" xml:space="preserve">
<g>
	<path class="st1" d="M100,71.4H78.6V27.3c0-2-1.6-3.6-3.6-3.6s-3.6,1.6-3.6,3.6V75c0,2,1.6,3.6,3.6,3.6c0,0,0,0,0,0s0,0,0,0h25
		c2,0,3.6-1.6,3.6-3.6S101.9,71.4,100,71.4z"/>
	<g>
		<g>
			<path class="st1" d="M75,142.7c0.5,0,0.9-0.2,1.3-0.5c0.3-0.3,0.5-0.8,0.5-1.3c0-1-0.8-1.8-1.8-1.8c-0.5,0-0.9,0.2-1.3,0.5
				c-0.3,0.3-0.5,0.8-0.5,1.3C73.3,141.9,74,142.7,75,142.7L75,142.7z"/>
		</g>
	</g>
	<g>
		<g>
			<path class="st1" d="M75,10.9c0.5,0,0.9-0.2,1.3-0.5c0.3-0.3,0.5-0.8,0.5-1.3c0-1-0.8-1.8-1.8-1.8c-0.5,0-0.9,0.2-1.3,0.5
				c-0.3,0.3-0.5,0.8-0.5,1.3C73.3,10.1,74,10.9,75,10.9L75,10.9z"/>
		</g>
	</g>
	<g>
		<g>
			<path class="st1" d="M5.9,76.8c0.5,0,0.9-0.2,1.3-0.5C7.5,76,7.7,75.4,7.7,75c0-1-0.8-1.8-1.8-1.8c-0.5,0-0.9,0.2-1.3,0.5
				C4.4,74,4.1,74.6,4.1,75C4.2,76,4.9,76.8,5.9,76.8L5.9,76.8z"/>
		</g>
	</g>
	<g>
		<g>
			<path class="st1" d="M144.1,73.2c-0.5,0-0.9,0.2-1.3,0.5c-0.3,0.3-0.5,0.8-0.5,1.3c0,1,0.8,1.8,1.8,1.8c0.5,0,0.9-0.2,1.3-0.5
				c0.3-0.3,0.5-0.8,0.5-1.3C145.8,74,145.1,73.2,144.1,73.2L144.1,73.2z"/>
		</g>
	</g>
	<g>
		<g>
			<path class="st1" d="M123.8,125.6c0.5,0,0.9-0.2,1.3-0.5c0.3-0.3,0.5-0.8,0.5-1.3c0-1-0.8-1.8-1.8-1.8c-0.5,0-0.9,0.2-1.3,0.5
				c-0.3,0.3-0.5,0.8-0.5,1.3C122.1,124.8,122.8,125.6,123.8,125.6L123.8,125.6z"/>
		</g>
	</g>
	<g>
		<g>
			<path class="st1" d="M26.2,125.6c0.5,0,0.9-0.2,1.3-0.5c0.3-0.3,0.5-0.8,0.5-1.3c0-1-0.8-1.8-1.8-1.8c-0.5,0-0.9,0.2-1.3,0.5
				c-0.3,0.3-0.5,0.8-0.5,1.3C24.4,124.8,25.2,125.6,26.2,125.6L26.2,125.6z"/>
		</g>
	</g>
	<g>
		<g>
			<path class="st1" d="M26.2,27.9c0.5,0,0.9-0.2,1.3-0.5c0.3-0.3,0.5-0.8,0.5-1.3c0-1-0.8-1.8-1.8-1.8c-0.5,0-0.9,0.2-1.3,0.5
				c-0.3,0.3-0.5,0.8-0.5,1.3C24.4,27.1,25.2,27.9,26.2,27.9L26.2,27.9z"/>
		</g>
	</g>
	<g>
		<g>
			<path class="st1" d="M123.8,27.9c0.5,0,0.9-0.2,1.3-0.5c0.3-0.3,0.5-0.8,0.5-1.3c0-1-0.8-1.8-1.8-1.8c-0.5,0-0.9,0.2-1.3,0.5
				c-0.3,0.3-0.5,0.8-0.5,1.3C122.1,27.1,122.8,27.9,123.8,27.9L123.8,27.9z"/>
		</g>
	</g>
</g>
</svg>
