<?xml version="1.0" encoding="utf-8"?>
<!-- Generator: Adobe Illustrator 24.0.1, SVG Export Plug-In . SVG Version: 6.00 Build 0)  -->
<svg version="1.1" id="Layer_1" xmlns="http://www.w3.org/2000/svg" xmlns:xlink="http://www.w3.org/1999/xlink" x="0px" y="0px"
	 viewBox="0 0 150 150" style="enable-background:new 0 0 150 150;" xml:space="preserve">
<style type="text/css">
	.st0{fill:#191F50;}
	.st1{fill:#4460AC;}
	.st2{fill:#229FDA;}
</style>
<g>
	<path class="st0" d="M15,80.3H2.4c0-38.4,31.3-69.7,69.7-69.7v12.5C40.6,23.1,15,48.8,15,80.3 M72.2,150
		c-38.4,0-69.7-31.3-69.7-69.7H15c0,31.5,25.6,57.2,57.2,57.2V150z M72.2,150v-12.5c31.5,0,57.2-25.6,57.2-57.2h12.5
		C141.9,118.7,110.6,150,72.2,150"/>
	<path class="st1" d="M147.6,74.6H135c0-31.5-25.6-57.2-57.2-57.2V4.9C116.3,4.9,147.6,36.2,147.6,74.6"/>
	<path class="st2" d="M72.2,88.1c4.3,0,7.8-3.5,7.8-7.8s-3.5-7.8-7.8-7.8c-4.3,0-7.8,3.5-7.8,7.8S67.9,88.1,72.2,88.1"/>
	<rect x="69.4" class="st2" width="5.6" height="78.4"/>
	
		<rect x="80.5" y="55.4" transform="matrix(-1.836970e-16 1 -1 -1.836970e-16 163.5801 -3.0027)" class="st2" width="5.6" height="49.7"/>
</g>
</svg>
